<?xml version="1.0" standalone="no"?>
<!DOCTYPE svg PUBLIC "-//W3C//DTD SVG 20010904//EN"
 "http://www.w3.org/TR/2001/REC-SVG-20010904/DTD/svg10.dtd">
<svg version="1.0" xmlns="http://www.w3.org/2000/svg"
 width="598.000000pt" height="598.000000pt" viewBox="0 0 598.000000 598.000000"
 preserveAspectRatio="xMidYMid meet">
<metadata>
Created by potrace 1.14, written by Peter Selinger 2001-2017
</metadata>
<g transform="translate(0.000000,598.000000) scale(0.100000,-0.100000)"
fill="#000000" stroke="none">
<path d="M3305 5214 c-87 -21 -102 -49 -115 -216 -14 -185 -29 -223 -88 -230
-56 -8 -149 -56 -184 -96 -16 -19 -38 -53 -48 -76 -39 -90 -93 -110 -258 -94
-166 15 -452 5 -532 -19 -328 -100 -580 -408 -540 -659 20 -126 59 -197 186
-333 65 -70 65 -70 8 -185 -76 -152 -144 -344 -174 -490 -51 -249 -63 -489
-35 -666 40 -243 174 -519 311 -636 107 -93 130 -121 182 -225 35 -69 62 -142
81 -219 27 -108 31 -117 71 -152 85 -75 152 -67 306 39 196 133 198 134 343
144 156 11 211 21 330 60 231 75 392 193 550 404 206 274 367 624 431 936 23
110 29 273 16 385 l-8 62 104 49 c84 41 113 60 159 110 66 71 95 126 110 207
19 105 -14 255 -88 400 -39 76 -63 107 -147 191 -62 61 -125 114 -164 135 -35
19 -87 49 -117 67 -30 17 -89 45 -132 63 -70 28 -133 71 -133 91 0 5 11 25 25
45 21 30 25 49 25 103 -1 117 -54 190 -166 225 -45 14 -54 21 -48 34 51 123
76 308 54 402 -15 61 -57 115 -103 129 -37 11 -183 21 -212 15z m-1324 -1949
c15 -8 30 -23 34 -34 3 -11 31 -41 61 -67 61 -52 86 -97 111 -204 19 -83 7
-244 -34 -429 -31 -144 -108 -281 -196 -348 -30 -23 -39 -67 -52 -268 -6 -91
-4 -108 19 -182 27 -82 66 -150 122 -211 48 -51 92 -149 98 -216 l5 -58 -45
73 c-45 72 -118 167 -140 181 -35 22 -190 307 -235 429 -75 205 -104 403 -89
610 12 160 19 205 65 369 35 126 62 201 116 319 l30 64 51 -7 c28 -4 64 -14
79 -21z"/>
</g>
</svg>
