<?xml version="1.0" encoding="UTF-8" standalone="no"?>
<svg
  xmlns="http://www.w3.org/2000/svg"
  version="1.1"
  width="256"
  height="256"
  viewBox="0 0 256 256"
>
  <path
    fill="#3a9bd8"
    d="m 249.32752,6.66962 a 116.9486,143.93674 45 0 0 -134.71197,45.72398 116.9486,143.93674 45 0 0 -43.875885,75.81217 143.93674,89.960452 45 0 1 31.153555,25.96647 143.93674,89.960452 45 0 1 25.96646,31.15355 116.9486,143.93674 45 0 0 75.81218,-43.87588 116.9486,143.93674 45 0 0 45.72397,-134.71197 116.9486,143.93674 45 0 0 -0.059,-0.009 116.9486,143.93674 45 0 0 -0.009,-0.0591 z M 86.639464,56.93773 A 107.95255,125.94466 45 0 0 6.4757387,96.92175 107.95255,125.94466 45 0 0 4.0654455,99.48112 143.93674,89.960452 45 0 1 54.793252,118.32235 C 61.166623,96.37314 72.084563,75.48796 86.639456,56.93772 Z M 199.12773,169.426 c -18.55024,14.55488 -39.43542,25.47282 -61.38462,31.8462 A 143.93674,89.960452 45 0 1 156.58432,252 107.95255,125.94466 45 0 0 159.1437,249.58972 107.95255,125.94466 45 0 0 199.12773,169.426 Z"
  />
  <circle
    fill="#ffffff"
    cx="146.42137"
    cy="109.64411"
    r="13.5"
  />
  <circle
    fill="#ffffff"
    cx="190.94954"
    cy="65.115952"
    r="27"
  />
  <path
    fill="#f2c500"
    d="M 87.580595,155.76253 3.9307001,252 100.30293,168.48486 Z m -20.673787,-17.4932 -51.073191,70.02192 63.795521,-57.29959 z m 38.166992,38.16699 -57.434357,63.66076 70.156687,-50.93843 z"
  />
  <path
    fill="#000000"
    opacity="0.15"
    d="m 249.39584,6.73794 -0.059,-0.009 -147.4436,147.4436 c 9.65606,9.6815 18.39989,20.171 25.96646,31.15355 27.69831,-7.03772 54.24055,-22.3989 75.81218,-43.87588 37.91107,-37.94287 55.53413,-89.86098 45.72398,-134.71197 z M 199.12773,169.426 c -18.55023,14.55488 -39.43542,25.47282 -61.38462,31.8462 9.58415,16.98434 16.00883,34.28204 18.84122,50.7278 0.86265,-0.793 1.71582,-1.59656 2.55941,-2.41025 22.22014,-22.27866 36.48405,-50.87625 39.98403,-80.16372 z M 93.941765,162.1237 3.9307047,252 100.30293,168.48486 Z m 11.132035,14.31262 -57.434352,63.66076 70.156682,-50.93843 z"
  />
</svg>
